<svg height='100px' width='100px'  fill="#f38f19" xmlns="http://www.w3.org/2000/svg" xmlns:xlink="http://www.w3.org/1999/xlink" version="1.1" x="0px" y="0px" viewBox="0 0 16 16" style="enable-background:new 0 0 16 16;" xml:space="preserve"><g><path d="M8,15c-3.86,0-7-3.141-7-7c0-3.86,3.14-7,7-7c3.859,0,7,3.14,7,7C15,11.859,11.859,15,8,15z M8,2C4.691,2,2,4.691,2,8   s2.691,6,6,6s6-2.691,6-6S11.309,2,8,2z"></path><path d="M11,7c-0.552,0-1-0.449-1-1s0.448-1,1-1s1,0.449,1,1S11.552,7,11,7z M11,5.5L10.999,6C10.999,6,11,6,11,6V5.5z"></path><path d="M5,7C4.449,7,4,6.551,4,6s0.449-1,1-1s1,0.449,1,1S5.551,7,5,7z M5,5.5L4.999,6C5,6,5,6,5,6V5.5z"></path><path d="M10.5,11h-5C5.224,11,5,10.776,5,10.5S5.224,10,5.5,10h5c0.276,0,0.5,0.224,0.5,0.5S10.776,11,10.5,11z"></path></g></svg>