<svg width="188" height="189" viewBox="0 0 188 189" fill="none" xmlns="http://www.w3.org/2000/svg">
<path d="M178.688 49.9894C189.355 39.3228 190.422 21.7227 181.355 10.5227C174.422 1.98942 155.755 -7.07725 138.688 8.38942L125.888 21.7227C125.355 22.2561 124.288 22.7894 123.755 22.7894C122.688 22.7894 122.155 22.2561 121.622 21.7227C116.288 16.3894 107.222 16.3894 101.888 21.7227L88.5549 35.0561C86.4216 37.1894 86.4216 40.3894 88.5549 42.5228L100.822 54.7894L44.8216 109.723C27.2216 127.323 12.2883 148.123 0.554943 170.523C-0.511724 172.656 0.0216098 175.323 1.62161 176.923L11.2216 186.523C13.8883 189.189 16.5549 188.123 17.6216 187.589C40.0216 176.389 60.2883 161.456 78.4216 143.323L133.355 88.3894L145.622 100.656C148.822 103.323 152.022 101.723 153.088 100.656L166.422 87.3227C171.755 81.9894 171.755 72.9228 166.422 67.5894C165.355 66.5228 165.355 64.3894 166.422 62.7894L178.688 49.9894ZM70.9549 135.856C54.9549 151.856 36.2883 165.723 16.5549 176.389L12.2883 172.123C22.9549 151.856 36.2883 133.723 52.8216 117.723L107.755 62.7894L125.888 80.9228L70.9549 135.856ZM158.955 74.5228C160.022 75.5894 160.022 77.7227 158.955 79.3227L149.355 88.9228L99.2216 38.7894L108.822 29.1894C109.888 28.1228 112.022 28.1228 113.622 29.1894C116.288 31.8561 120.022 33.4561 123.755 33.4561C127.488 33.4561 131.222 31.8561 133.888 29.1894L146.155 16.3894C157.355 6.25608 169.622 13.1894 172.822 17.4561C178.155 24.9228 177.622 35.5894 170.688 42.5228L158.422 54.7894C155.755 57.4561 154.155 61.1894 154.155 64.9228C154.688 68.6561 156.288 72.3894 158.955 74.5228Z" fill="#2D2E43"/>
</svg>
