<?xml version="1.0" encoding="UTF-8"?>
<svg width="193px" height="193px" viewBox="0 0 193 193" version="1.1" xmlns="http://www.w3.org/2000/svg" xmlns:xlink="http://www.w3.org/1999/xlink">
    <title>Group</title>
    <g id="Page-1" stroke="none" stroke-width="1" fill="none" fill-rule="evenodd">
        <g id="v" transform="translate(-133.000000, -141.000000)" fill="#FFFFFF" fill-rule="nonzero">
            <g id="Group" transform="translate(133.249836, 141.249791)">
                <path d="M134.831289,73.1482085 C135.530509,69.9490085 137.030489,62.3472085 137.030489,60.7502085 C137.057833,57.8596085 135.932789,55.0744085 133.909389,53.0119085 C131.882089,50.9494085 129.120289,49.7775085 126.229689,49.7502085 L123.229689,49.7502085 C120.339089,49.7775525 117.577389,50.9494085 115.549989,53.0119085 C113.526589,55.0744085 112.401589,57.8596085 112.428889,60.7502085 C112.428889,61.8518085 113.128109,66.0510085 114.628089,73.0512085 C115.635889,78.4809085 114.753089,84.0902085 112.128089,88.9492085 L110.729689,91.7500085 L109.331289,88.9492085 C106.721889,84.1211085 105.839089,78.5472085 106.831289,73.1482085 C107.530509,69.9490085 109.030489,62.3472085 109.030489,60.7502085 C109.057833,57.8596085 107.932789,55.0744085 105.909389,53.0119085 C103.882089,50.9494085 101.120289,49.7775085 98.2296891,49.7502085 L95.2296891,49.7502085 C92.3390891,49.7775525 89.5773891,50.9494085 87.5499891,53.0119085 C85.5265891,55.0744085 84.4015891,57.8596085 84.4288891,60.7502085 C84.4288891,61.8518085 85.1281091,66.0510085 86.6280891,73.0512085 C87.6358891,78.4809085 86.7530891,84.0902085 84.1280891,88.9492085 L82.7296891,91.7500085 L81.3312891,88.9492085 C78.7218891,84.1211085 77.8390891,78.5472085 78.8312891,73.1482085 C79.5305091,69.9490085 81.0304891,62.3472085 81.0304891,60.7502085 C81.0578331,57.8596085 79.9327891,55.0744085 77.9093891,53.0119085 C75.8820891,50.9494085 73.1202891,49.7775085 70.2296891,49.7502085 L67.2296891,49.7502085 C64.3390891,49.7775525 61.5773891,50.9494085 59.5499891,53.0119085 C57.5265891,55.0744085 56.4015891,57.8596085 56.4288891,60.7502085 C56.4288891,61.8518085 57.1281091,66.0510085 58.6280891,73.0512085 C59.6358891,78.4809085 58.7530891,84.0902085 56.1280891,88.9492085 C47.6241891,104.426209 47.6241891,123.176209 56.1280891,138.648209 L56.8273091,139.847409 L59.0265091,140.546629 L59.0304151,140.550535 C65.3742151,142.550535 72.1824151,142.550535 78.5304151,140.550535 L80.7296151,139.851315 L81.4288351,138.652115 L82.7296351,135.949015 L84.1280351,138.749815 L84.8272551,139.949015 L87.0264551,140.648235 L87.0303611,140.648235 C93.3741611,142.652135 100.182361,142.652135 106.530361,140.648235 L108.729561,139.949015 L109.428781,138.749815 L110.729581,135.949015 L112.127981,138.749815 L112.827201,139.949015 L115.026401,140.648235 L115.030307,140.648235 C121.374107,142.652135 128.182307,142.652135 134.530307,140.648235 L136.729507,139.949015 L137.428727,138.749815 C145.932627,123.272815 145.932627,104.522815 137.428727,89.0508145 C134.764627,84.2031145 133.846727,78.5898145 134.831027,73.1488145 L134.831289,73.1482085 Z M128.432889,77.8474085 L121.030589,77.8474085 C121.026683,76.1755085 120.893869,74.5036085 120.628249,72.8474085 L128.831349,72.8474085 C128.565729,74.5036085 128.432909,76.1755085 128.429009,77.8474085 L128.432889,77.8474085 Z M123.132089,55.8474085 L126.233689,55.8474085 L126.229783,55.8474085 C128.897783,55.9020955 131.030583,58.0818085 131.030583,60.7497085 C131.030583,61.3512685 130.530583,63.8513085 130.030583,66.8513085 L119.428583,66.8474085 C118.827023,63.6482025 118.428583,61.3474085 118.428583,60.7458025 L118.428583,60.7497085 C118.428583,58.0817085 120.561383,55.9020085 123.229383,55.8474085 L123.132089,55.8474085 Z M100.433089,77.8474085 L93.0307891,77.8474085 C93.0268831,76.1755085 92.8940691,74.5036085 92.6284491,72.8474085 L100.831549,72.8474085 C100.565929,74.5036085 100.433109,76.1755085 100.429209,77.8474085 L100.433089,77.8474085 Z M95.1322891,55.8474085 L98.2338891,55.8474085 L98.2299831,55.8474085 C100.897983,55.9020955 103.030783,58.0818085 103.030783,60.7497085 C103.030783,61.3512685 102.530783,63.8513085 102.030783,66.8513085 L91.4287831,66.8474085 C90.8272231,63.6482025 90.4287831,61.3474085 90.4287831,60.7458025 L90.4287831,60.7497085 C90.4287831,58.0817085 92.5615831,55.9020085 95.2295831,55.8474085 L95.1322891,55.8474085 Z M72.4332891,77.8474085 L65.0309891,77.8474085 C65.0270831,76.1755085 64.8942691,74.5036085 64.6286491,72.8474085 L72.8317491,72.8474085 C72.5661291,74.5036085 72.4333091,76.1755085 72.4294091,77.8474085 L72.4332891,77.8474085 Z M67.1324891,55.8474085 L70.2340891,55.8474085 L70.2301831,55.8474085 C72.8981831,55.9020955 75.0309831,58.0818085 75.0309831,60.7497085 C75.0309831,61.3512685 74.5309831,63.8513085 74.0309831,66.8513085 L63.4289831,66.8474085 C62.8274231,63.6482025 62.4289831,61.3474085 62.4289831,60.7458025 L62.4289831,60.7497085 C62.4289831,58.0817085 64.5617831,55.9020085 67.2297831,55.8474085 L67.1324891,55.8474085 Z M76.5308891,134.949409 C71.4488891,136.515809 66.0108891,136.515809 60.9288891,134.949409 C53.9015891,121.433409 54.0890891,105.301409 61.4288891,91.9494085 C62.7804891,89.4377085 63.7569891,86.7424085 64.3311891,83.9494085 L73.1319891,83.9494085 L73.1280831,83.9494085 C73.7023031,86.7424085 74.6788831,89.4377085 76.0303831,91.9494085 C77.4717831,94.6252085 78.6436831,97.4416085 79.5303831,100.347809 C77.0576831,109.246209 77.0576831,118.652809 79.5303831,127.550809 C78.7452231,130.097709 77.7412831,132.574209 76.5303831,134.949209 L76.5308891,134.949409 Z M104.530889,134.949409 C99.4488891,136.515809 94.0108891,136.515809 88.9288891,134.949409 C81.9015891,121.433409 82.0890891,105.301409 89.4288891,91.9494085 C90.7804891,89.4377085 91.7569891,86.7424085 92.3311891,83.9494085 L101.131989,83.9494085 L101.128083,83.9494085 C101.702303,86.7424085 102.678883,89.4377085 104.030383,91.9494085 C105.612383,94.8049085 106.885883,97.8244085 107.831183,100.949409 L107.831183,101.148629 C109.057783,105.273629 109.698383,109.547029 109.729583,113.847629 C109.710052,121.199229 107.928783,128.433629 104.530383,134.949629 L104.530889,134.949409 Z M132.530889,134.949409 C127.448889,136.515809 122.010889,136.515809 116.928889,134.949409 C115.678889,132.547109 114.639789,130.035309 113.831189,127.449409 C116.303889,118.551009 116.303889,109.148409 113.831189,100.250409 C114.713999,97.3402085 115.889789,94.5277085 117.331189,91.8481085 C118.682789,89.3403085 119.659289,86.6450085 120.229589,83.8481085 L129.030389,83.8481085 C129.600699,86.6450085 130.577289,89.3364085 131.928789,91.8481085 C139.268589,105.200109 139.456089,121.332109 132.428789,134.848109 L132.530889,134.949409 Z" id="Shape"></path>
                <path d="M46.6213435,40.771628 L37.0915021,31.2417867 C35.9119188,30.0544355 34.1269981,29.7052192 32.5827621,30.3415883 C31.0384467,30.9857053 30.0294981,32.4911616 30.0294981,34.1675109 L30.0294981,59.0008443 C30.0294981,60.0950605 30.4640815,61.1504176 31.2401331,61.9266083 C32.0161847,62.7027989 33.0716013,63.1372432 34.1658971,63.1372432 L58.9992304,63.1372432 C60.6754804,63.1372432 62.1810757,62.128394 62.8251531,60.5839792 C63.4615023,59.0396637 63.112286,57.2547232 61.9249547,56.0752392 L52.488288,46.6385725 C67.75304,33.2208245 88.3337147,27.5556459 108.317595,31.2806459 C128.293528,35.0056459 145.450381,47.7093859 154.849301,65.7294459 C164.23948,83.7568565 164.829123,105.089286 156.447952,123.607006 C148.066603,142.123335 131.638459,155.751273 111.894965,160.576886 C92.1524655,165.40389 71.2914721,160.89507 55.3067521,148.338622 C39.3279921,135.782293 30.0085388,116.575795 30.0303921,96.2502085 C30.0303921,93.9609725 28.17566,92.1139685 25.8864041,92.1139685 C23.6049161,92.1139685 21.7501641,93.9609527 21.7501641,96.2502085 C21.7501641,116.008205 29.5959081,134.958422 43.5717108,148.928662 C57.5403615,162.905259 76.4907775,170.750209 96.2501641,170.750209 C116.009551,170.750209 134.958377,162.904465 148.928617,148.928662 C162.905215,134.960011 170.750164,116.009595 170.750164,96.2502085 C170.750164,76.4908219 162.90442,57.5419952 148.928617,43.5717552 C134.959967,29.5951579 116.009551,21.7501521 96.2501641,21.7501521 C77.9180981,21.7276023 60.2399435,28.502372 46.6213435,40.771628 Z" id="Path" transform="translate(96.250164, 96.250180) rotate(-21.000000) translate(-96.250164, -96.250180) "></path>
            </g>
        </g>
    </g>
</svg>