<?xml version="1.0" encoding="UTF-8"?>
<svg version="1.1" xmlns="http://www.w3.org/2000/svg" width="341" height="197">
<path d="M0 0 C1.11684154 -0.00905664 2.23368308 -0.01811328 3.3843683 -0.02744436 C5.21717849 -0.01945247 5.21717849 -0.01945247 7.08701515 -0.01129913 C9.0399947 -0.02043579 9.0399947 -0.02043579 11.03242838 -0.02975702 C14.64478395 -0.04617038 18.25692148 -0.04383584 21.86930132 -0.03838205 C25.76579821 -0.03571356 29.66223676 -0.05024027 33.5587101 -0.06247711 C41.19185201 -0.08354105 48.82491798 -0.08807141 56.45808552 -0.08628923 C62.66214959 -0.08498207 68.86618995 -0.08878338 75.07024956 -0.09621429 C76.85671158 -0.09831347 78.64317361 -0.10041107 80.42963564 -0.10250711 C81.76335941 -0.10407241 81.76335941 -0.10407241 83.12402709 -0.10566932 C99.9438131 -0.12457563 116.76355551 -0.12352031 133.58334775 -0.11669999 C148.97193561 -0.1111244 164.36035699 -0.13194994 179.74890594 -0.16506046 C195.54781577 -0.19879023 211.34664582 -0.21396668 227.14559233 -0.20934343 C236.01631954 -0.207098 244.88689288 -0.21235269 253.75758934 -0.23723602 C261.30966657 -0.25823997 268.86150558 -0.26185026 276.41359256 -0.24293643 C280.26671108 -0.23377282 284.11938532 -0.23265412 287.97246933 -0.25329208 C292.14991416 -0.2754199 296.32631011 -0.25879959 300.5037632 -0.23834991 C302.32988123 -0.25712669 302.32988123 -0.25712669 304.19289052 -0.27628279 C311.30807165 -0.20142285 315.16277338 0.46742173 320.42237282 5.38311005 C324.87119269 11.17693966 324.97989769 16.03472795 324.87647438 23.18364716 C324.87705849 24.24780853 324.87764259 25.31196991 324.8782444 26.4083786 C324.8754681 29.90940753 324.84439619 33.40957444 324.81299782 36.9104538 C324.80553385 39.34425135 324.79984165 41.77805493 324.79584694 44.21186066 C324.78060307 50.60541744 324.74133133 56.9986085 324.69703102 63.39202118 C324.65605181 69.92090152 324.63783022 76.44984118 324.61768532 82.97881317 C324.57483643 95.78040114 324.50737282 108.5817361 324.42237282 121.38311005 C321.76146814 118.7754621 319.34067232 116.27499716 317.09034157 113.29717255 C313.89372668 109.80570152 311.08703538 108.42115594 306.73487282 106.75811005 C305.98504128 106.46670135 305.23520973 106.17529266 304.46265602 105.87505341 C276.72726512 95.48258367 247.72782547 98.06779756 219.53174782 105.6057663 C212.79478229 107.29000768 205.95363962 108.53115237 199.13819313 109.85381317 C196.37459223 110.39242219 193.61331235 110.9419731 190.85206032 111.49248505 C189.02142122 111.85231859 187.19069443 112.21170631 185.35987282 112.57061005 C184.1128257 112.82088959 184.1128257 112.82088959 182.84058571 113.07622528 C172.97734958 114.98527039 163.14284229 115.57884111 153.10987282 115.63311005 C152.19915016 115.65373505 151.28842751 115.67436005 150.35010719 115.69561005 C131.58795664 115.79614401 113.3085061 111.45859857 95.23487282 106.88311005 C68.82777237 100.09075687 68.82777237 100.09075687 41.73487282 98.00811005 C40.76992897 98.01826141 39.80498512 98.02841278 38.81080055 98.03887177 C21.17314616 98.41735591 3.54379325 102.42543035 -10.34325218 113.7463913 C-12.55489561 115.36645877 -13.95354213 115.82213438 -16.57762718 116.38311005 C-16.71676931 102.83110881 -16.82332119 89.27927807 -16.88850021 75.72670746 C-16.91978619 69.43336978 -16.96221098 63.14052153 -17.0302639 56.84746552 C-17.09555109 50.77200778 -17.13135378 44.69702022 -17.14689064 38.62123871 C-17.15795996 36.30559133 -17.17957613 33.98996912 -17.21200752 31.6745224 C-17.25569325 28.42578176 -17.26155593 25.17897309 -17.25877953 21.92998505 C-17.28035118 20.97691971 -17.30192284 20.02385437 -17.32414818 19.04190826 C-17.26957236 13.12323057 -16.07307745 9.67808983 -12.35446167 5.05529022 C-8.50009586 1.42794387 -5.28365278 0.00861749 0 0 Z " fill="#1F395B" transform="translate(16.577627182006836,-0.38311004638671875)"/>
<path d="M0 0 C2.97 0.495 2.97 0.495 6 1 C3.09133071 2.93911286 0.19359052 4.45187119 -2.9375 6 C-3.97777344 6.515625 -5.01804687 7.03125 -6.08984375 7.5625 C-7.05019531 8.036875 -8.01054687 8.51125 -9 9 C-10.33377107 9.66579048 -11.66730955 10.33204912 -13 11 C-13 10.01 -13 9.02 -13 8 C-11.35 7.34 -9.7 6.68 -8 6 C-8 5.34 -8 4.68 -8 4 C-6.865625 3.71125 -5.73125 3.4225 -4.5625 3.125 C-3.386875 2.75375 -2.21125 2.3825 -1 2 C-0.67 1.34 -0.34 0.68 0 0 Z " fill="#2B4154" transform="translate(19,101)"/>
<path d="M0 0 C1.175625 0.5259375 1.175625 0.5259375 2.375 1.0625 C3.674375 1.5265625 3.674375 1.5265625 5 2 C5.66 1.67 6.32 1.34 7 1 C7 3.31 7 5.62 7 8 C4.35247996 5.42215154 2.05567935 3.08351902 0 0 Z " fill="#557D98" transform="translate(334,113)"/>
<path d="M0 0 C0 0.66 0 1.32 0 2 C-1.8125 3.6875 -1.8125 3.6875 -4 5 C-4.99 4.67 -5.98 4.34 -7 4 C-3.375 0 -3.375 0 0 0 Z " fill="#2A4664" transform="translate(12,107)"/>
</svg>
