<svg width="32" height="33" viewBox="0 0 32 33" fill="none" xmlns="http://www.w3.org/2000/svg">
<path d="M16 0.975098C11.7565 0.975098 7.68672 2.66086 4.6864 5.6615C1.68589 8.66214 0 12.7319 0 16.9751C0 21.2183 1.68576 25.2884 4.6864 28.2887C7.68704 31.2892 11.7568 32.9751 16 32.9751C20.2432 32.9751 24.3133 31.2893 27.3136 28.2887C30.3141 25.2881 32 21.2183 32 16.9751C32 14.1665 31.2607 11.4074 29.8564 8.9751C28.4521 6.54284 26.4324 4.52294 24.0001 3.11878C21.5678 1.71439 18.8087 0.975162 16.0001 0.975162L16 0.975098ZM16 29.7751C12.6051 29.7751 9.34944 28.4265 6.94912 26.026C4.54874 23.6255 3.2 20.3697 3.2 16.9751C3.2 13.5805 4.54864 10.3245 6.94912 7.92422C9.34963 5.52383 12.6054 4.1751 16 4.1751C19.3946 4.1751 22.6506 5.52374 25.0509 7.92422C27.4513 10.3247 28.8 13.5805 28.8 16.9751C28.8 19.222 28.2085 21.4292 27.0851 23.3751C25.9618 25.321 24.3459 26.9367 22.4 28.0602C20.4541 29.1836 18.2467 29.7751 16 29.7751Z" fill="white"/>
<path d="M6.3999 16.9751C6.3999 19.5212 7.41126 21.9629 9.21165 23.7633C11.012 25.5636 13.4539 26.575 15.9998 26.575V7.375C13.4537 7.375 11.012 8.38636 9.21165 10.1867C7.41126 11.9871 6.3999 14.429 6.3999 16.9749V16.9751Z" fill="white"/>
</svg>
