<svg width="32" height="32" viewBox="0 0 32 32" fill="none" xmlns="http://www.w3.org/2000/svg">
<path d="M15.9999 18.909C17.6066 18.909 18.909 17.6066 18.909 15.9999C18.909 14.3933 17.6066 13.0908 15.9999 13.0908C14.3932 13.0908 13.0908 14.3933 13.0908 15.9999C13.0908 17.6066 14.3932 18.909 15.9999 18.909Z" fill="white"/>
<path fill-rule="evenodd" clip-rule="evenodd" d="M17.4545 0V4.45353C22.7183 5.10988 26.8899 9.28175 27.5465 14.5455H32V17.4545H27.5465C26.89 22.718 22.7185 26.8899 17.4545 27.5465V32H14.5455V27.5465C9.28175 26.8901 5.11011 22.7183 4.45353 17.4545H0V14.5455H4.45353C5.10999 9.28204 9.28175 5.11011 14.5455 4.45353V0H17.4545ZM7.27273 16C7.27273 20.8198 11.1799 24.7273 16 24.7273C20.8198 24.7273 24.7273 20.8198 24.7273 16C24.7273 11.1802 20.8198 7.27273 16 7.27273C11.1799 7.27273 7.27273 11.1802 7.27273 16Z" fill="white"/>
</svg>
