<?xml version="1.0" encoding="utf-8"?>
<!-- Generator: Adobe Illustrator 27.8.1, SVG Export Plug-In . SVG Version: 6.00 Build 0)  -->
<svg version="1.1" id="Layer_1" xmlns="http://www.w3.org/2000/svg" xmlns:xlink="http://www.w3.org/1999/xlink" x="0px" y="0px"
	 viewBox="0 0 32 32" style="enable-background:new 0 0 32 32;" xml:space="preserve">
<style type="text/css">
	.st0{fill:#FFFFFF;}
</style>
<path class="st0" d="M14.5,1h-11C2.1,1,1,2.1,1,3.5v25C1,29.9,2.1,31,3.5,31h11c1.4,0,2.5-1.1,2.5-2.5v-25C17,2.1,15.9,1,14.5,1z
	 M16,28.5c0,0.8-0.7,1.5-1.5,1.5h-11C2.7,30,2,29.3,2,28.5v-25C2,2.7,2.7,2,3.5,2H5v0.5C5,2.8,5.2,3,5.5,3h7C12.8,3,13,2.8,13,2.5V2
	h1.5C15.3,2,16,2.7,16,3.5V28.5z"/>
<path class="st0" d="M28.5,15H19c-0.3,0-0.5,0.2-0.5,0.5S18.7,16,19,16h9.5c0.8,0,1.5,0.7,1.5,1.5V19h-0.5c-0.3,0-0.5,0.2-0.5,0.5v7
	c0,0.3,0.2,0.5,0.5,0.5H30v1.5c0,0.8-0.7,1.5-1.5,1.5H18c-0.3,0-0.5,0.2-0.5,0.5S17.7,31,18,31h10.5c1.4,0,2.5-1.1,2.5-2.5v-11
	C31,16.1,29.9,15,28.5,15z"/>
<path class="st0" d="M20.1,6.8C20.2,6.9,20.3,7,20.5,7c0.1,0,0.2,0,0.3-0.1c0.2-0.2,0.3-0.5,0.1-0.7l-0.8-1.1
	c3.6,0.6,6.5,3.2,7.5,6.7L26.2,11c-0.2-0.2-0.5-0.1-0.7,0.1c-0.2,0.2-0.1,0.5,0.1,0.7c0,0,0.1,0,0.1,0.1l2.2,1.3
	c0.1,0,0.2,0.1,0.2,0.1h0.1c0.1,0,0.2-0.1,0.3-0.2l1.3-2.2c0.1-0.2,0.1-0.5-0.2-0.7c-0.2-0.1-0.5-0.1-0.7,0.2l-0.5,0.9
	c-1.2-3.7-4.4-6.4-8.2-7.1l1-0.8c0.2-0.2,0.3-0.5,0.1-0.7s-0.5-0.3-0.7-0.1l-2,1.5c-0.2,0.2-0.3,0.5-0.1,0.7L20.1,6.8z"/>
</svg>
