<svg width="32" height="32" viewBox="0 0 32 32" fill="none" xmlns="http://www.w3.org/2000/svg">
<path d="M19.6461 0.80184C19.6461 0.35074 19.9969 0 20.448 0H23.3046C26.7627 0 29.5693 2.80655 29.5693 6.2647V10.3242L30.6217 9.27176C30.9224 8.97109 31.4235 8.97109 31.7745 9.27176C32.0752 9.57243 32.0752 10.0736 31.7745 10.4246L29.3688 12.8303C29.2183 12.9807 29.018 13.0809 28.8175 13.0809C28.617 13.0809 28.4165 12.9807 28.2663 12.8303L25.8605 10.4246C25.5599 10.1239 25.5599 9.62271 25.8605 9.27176C26.1612 8.97109 26.6624 8.97109 27.0133 9.27176L28.0658 10.3242V6.2647C28.0658 3.70875 25.9609 1.60376 23.4048 1.60376H20.5482C19.9969 1.60393 19.6461 1.25292 19.6461 0.80184ZM0 14.8849V0.902076C0 0.450975 0.350757 0.100235 0.801841 0.100235H14.7847C15.2358 0.100235 15.5865 0.450992 15.5865 0.902076V14.8849C15.5865 15.336 15.2357 15.6867 14.7847 15.6867H0.801841C0.350907 15.6867 0 15.3358 0 14.8849ZM5.06184 22.7031C5.21226 22.8535 5.4126 22.9537 5.61309 22.9537C5.8136 22.9537 6.0141 22.8535 6.16434 22.7031C6.46502 22.4024 6.46502 21.9013 6.16434 21.5503L3.75861 19.1446C3.60819 18.9942 3.40786 18.894 3.20736 18.894C3.00686 18.894 2.80635 18.9942 2.65611 19.1446L0.25038 21.5503C-0.0502926 21.851 -0.0502926 22.3522 0.25038 22.7031C0.551052 23.0038 1.05222 23.0038 1.40317 22.7031L2.4556 21.6507V25.7102C2.4556 29.1683 5.26214 31.9749 8.7203 31.9749H11.5769C12.028 31.9749 12.3788 31.6241 12.3788 31.173C12.3788 30.7219 12.028 30.3712 11.5769 30.3712H8.7203C6.16434 30.3712 4.05936 28.2663 4.05936 25.7103V21.6508L5.06184 22.7031ZM16.3884 31.0728V17.0899C16.3884 16.6388 16.7392 16.2881 17.1903 16.2881H31.1731C31.6242 16.2881 31.9749 16.6389 31.9749 17.0899V31.0728C31.9749 31.5239 31.6242 31.8746 31.1731 31.8746H17.1903C16.7392 31.8746 16.3884 31.5239 16.3884 31.0728Z" fill="white"/>
</svg>
