<?xml version="1.0" encoding="utf-8"?>
<!-- Generator: Adobe Illustrator 26.3.1, SVG Export Plug-In . SVG Version: 6.00 Build 0)  -->
<svg version="1.1" id="Capa_1" xmlns="http://www.w3.org/2000/svg" xmlns:xlink="http://www.w3.org/1999/xlink" x="0px" y="0px"
	 viewBox="0 0 37.5 45.4" style="enable-background:new 0 0 37.5 45.4;" xml:space="preserve">
<style type="text/css">
	.st0{fill:#041B30;}
</style>
<g>
	<g>
		<path class="st0" d="M6.8,45.4H5.7c-3.1,0-5.7-2.6-5.7-5.7v-34C0,2.6,2.6,0,5.7,0h1.1c3.1,0,5.7,2.6,5.7,5.7v34
			C12.5,42.8,10,45.4,6.8,45.4z"/>
	</g>
	<g>
		<path class="st0" d="M31.8,45.4h-1.1c-3.1,0-5.7-2.6-5.7-5.7v-34C25,2.6,27.6,0,30.7,0h1.1c3.1,0,5.7,2.6,5.7,5.7v34
			C37.5,42.8,34.9,45.4,31.8,45.4z"/>
	</g>
</g>
</svg>
