<?xml version="1.0" encoding="UTF-8" standalone="no"?>
<!DOCTYPE svg PUBLIC "-//W3C//DTD SVG 1.1//EN" "http://www.w3.org/Graphics/SVG/1.1/DTD/svg11.dtd">
<svg xmlns="http://www.w3.org/2000/svg" version="1.1" viewBox="0.00 0.00 1024.00 1024.00">
<path fill="#000000" d="
  M 394.26 484.17
  Q 394.43 438.01 394.25 348.72
  Q 394.19 317.33 395.24 310.35
  Q 399.11 284.66 411.63 264.36
  Q 418.18 253.74 430.21 243.68
  Q 454.57 223.31 487.02 219.21
  C 497.55 217.87 508.45 217.96 518.99 218.23
  Q 531.46 218.56 543.45 221.38
  C 561.92 225.73 577.83 232.42 591.60 244.85
  C 610.84 262.22 621.81 288.52 623.59 314.38
  Q 624.13 322.11 624.12 332.52
  Q 623.97 459.63 624.03 484.20
  A 0.56 0.56 0.0 0 0 624.59 484.76
  L 654.27 484.76
  A 2.39 2.34 -34.2 0 1 655.10 484.91
  Q 660.65 486.98 660.80 492.58
  Q 661.06 502.50 660.94 547.24
  C 660.92 554.16 660.02 561.37 659.03 567.78
  Q 655.73 589.19 647.80 604.81
  Q 640.17 619.86 629.72 632.98
  C 617.34 648.53 599.39 660.94 582.42 669.43
  Q 561.64 679.81 535.32 683.07
  A 0.61 0.60 -3.8 0 0 534.79 683.67
  L 534.79 772.27
  A 0.73 0.73 0.0 0 0 535.52 773.00
  Q 602.77 773.05 616.00 772.95
  Q 620.43 772.92 622.93 774.58
  C 629.31 778.81 638.46 786.57 639.87 794.46
  A 4.03 3.90 -48.1 0 1 639.91 795.51
  Q 639.43 800.21 639.33 805.27
  C 639.18 812.63 638.86 816.56 632.89 819.24
  Q 631.62 819.81 626.02 819.81
  Q 449.19 819.75 395.75 819.83
  C 388.10 819.84 383.22 819.87 381.01 811.36
  Q 378.84 803.01 379.72 793.95
  C 380.18 789.26 385.72 783.74 388.97 780.49
  C 393.43 776.01 396.51 772.99 402.76 773.01
  Q 425.16 773.05 484.17 772.98
  A 0.61 0.61 0.0 0 0 484.78 772.37
  L 484.78 683.58
  A 0.59 0.58 3.3 0 0 484.26 683.00
  C 464.98 681.06 445.23 674.87 428.42 664.92
  Q 418.22 658.89 408.95 651.80
  Q 402.16 646.61 398.28 642.51
  Q 371.13 613.76 361.89 576.91
  Q 357.83 560.72 357.91 539.75
  Q 357.94 531.25 357.93 494.26
  Q 357.93 488.04 362.38 485.64
  Q 364.46 484.53 372.31 484.73
  Q 378.25 484.88 393.69 484.74
  A 0.57 0.57 0.0 0 0 394.26 484.17
  Z
  M 409.40 446.04
  L 608.76 446.04
  A 1.05 1.04 1.7 0 0 609.81 445.06
  Q 610.03 441.20 610.03 439.50
  Q 610.05 336.58 610.05 332.75
  Q 610.04 320.46 608.99 311.50
  C 604.93 276.87 583.22 248.03 549.60 237.46
  Q 535.46 233.02 521.98 232.39
  Q 518.71 232.24 505.15 232.27
  C 498.53 232.28 490.49 232.88 485.61 233.66
  Q 455.25 238.48 434.47 259.67
  Q 425.11 269.21 419.59 280.41
  C 414.48 290.80 410.63 301.75 409.44 313.06
  Q 408.76 319.53 408.76 321.80
  Q 408.83 428.43 408.60 445.24
  A 0.80 0.79 0.4 0 0 409.40 446.04
  Z
  M 609.97 460.83
  A 0.48 0.48 0.0 0 0 609.49 460.35
  L 409.06 460.35
  A 0.36 0.36 0.0 0 0 408.70 460.71
  Q 408.74 516.57 408.70 521.22
  Q 408.54 538.31 409.82 546.22
  C 412.70 564.00 418.51 581.10 429.99 595.02
  Q 437.20 603.77 440.68 606.83
  Q 461.72 625.37 488.71 630.57
  C 499.03 632.55 511.72 632.88 522.17 632.06
  Q 551.12 629.81 573.68 611.70
  Q 585.47 602.25 592.49 592.26
  Q 603.25 576.97 608.28 557.07
  C 609.84 550.95 610.04 544.19 610.04 537.50
  Q 609.99 470.79 609.97 460.83
  Z
  M 372.13 499.09
  Q 372.26 507.16 372.20 543.22
  C 372.13 580.97 388.10 616.85 418.11 639.88
  Q 433.75 651.89 448.83 658.68
  Q 466.63 666.70 489.04 669.15
  Q 502.72 670.65 521.51 669.60
  Q 538.58 668.64 553.53 664.50
  Q 582.23 656.54 605.24 636.54
  Q 633.43 612.06 642.43 576.90
  C 645.26 565.85 646.68 552.20 646.67 541.00
  Q 646.67 502.13 646.64 499.31
  A 0.61 0.60 0.0 0 0 646.03 498.71
  L 624.49 498.71
  A 0.51 0.51 0.0 0 0 623.98 499.22
  Q 624.16 528.07 624.01 544.01
  Q 623.91 553.37 621.21 563.73
  C 613.34 593.91 594.78 620.32 566.05 634.31
  C 561.46 636.55 553.75 640.27 547.62 641.84
  C 531.48 645.98 514.50 646.66 498.51 645.66
  C 483.42 644.72 467.92 640.81 454.69 633.59
  Q 447.46 629.64 439.96 624.46
  C 428.31 616.40 419.25 605.42 411.49 593.00
  C 401.93 577.71 396.20 561.48 394.98 544.03
  Q 394.30 534.24 394.30 528.99
  Q 394.31 499.82 394.34 499.30
  A 0.52 0.52 0.0 0 0 393.82 498.75
  L 372.52 498.69
  A 0.40 0.39 -90.0 0 0 372.13 499.09
  Z
  M 520.40 684.64
  A 0.42 0.42 0.0 0 0 519.98 684.22
  L 498.62 684.22
  A 0.42 0.42 0.0 0 0 498.20 684.64
  L 498.20 772.58
  A 0.42 0.42 0.0 0 0 498.62 773.00
  L 519.98 773.00
  A 0.42 0.42 0.0 0 0 520.40 772.58
  L 520.40 684.64
  Z
  M 395.35 806.32
  L 623.69 806.32
  A 1.55 1.55 0.0 0 0 625.24 804.77
  L 625.24 799.54
  A 14.79 12.70 0.0 0 0 610.45 786.84
  L 408.59 786.84
  A 14.79 12.70 -0.0 0 0 393.80 799.54
  L 393.80 804.77
  A 1.55 1.55 0.0 0 0 395.35 806.32
  Z"
/>
<path fill="#000000" d="
  M 306.53 307.18
  Q 310.32 310.01 308.52 315.91
  A 3.27 3.07 -22.2 0 1 308.13 316.76
  C 298.85 331.18 289.99 345.12 283.59 360.09
  Q 276.44 376.81 273.49 395.75
  Q 269.81 419.46 273.54 444.03
  C 277.50 470.07 290.26 492.50 303.81 514.69
  C 305.71 517.80 305.59 522.39 302.06 524.42
  C 297.55 527.02 292.90 525.63 290.24 521.13
  Q 283.51 509.74 277.04 497.84
  C 266.97 479.30 260.19 459.92 258.48 439.25
  Q 257.32 425.20 258.23 406.48
  Q 260.06 368.94 279.35 335.32
  Q 286.65 322.60 295.99 308.98
  C 298.51 305.30 303.08 304.60 306.53 307.18
  Z"
/>
<path fill="#000000" d="
  M 715.73 305.99
  C 718.27 305.71 720.73 308.03 722.41 310.18
  Q 741.54 334.77 751.88 364.64
  Q 765.10 402.83 759.18 443.22
  Q 755.89 465.61 747.53 485.09
  Q 739.57 503.61 728.18 521.17
  Q 725.07 525.96 719.30 524.78
  C 711.37 523.16 713.94 516.37 716.89 511.54
  Q 730.04 489.97 737.81 469.57
  C 744.08 453.09 746.32 436.71 746.45 418.49
  Q 746.77 370.50 718.74 330.24
  C 713.81 323.16 708.65 317.11 708.57 313.78
  Q 708.40 306.80 715.73 305.99
  Z"
/>
<path fill="#000000" d="
  M 329.95 341.97
  C 334.36 335.47 348.30 343.97 341.87 351.68
  C 328.14 368.14 318.95 386.51 317.02 408.42
  C 314.79 433.78 321.59 456.85 335.65 477.69
  C 341.94 487.01 330.07 494.78 324.42 486.61
  C 312.06 468.77 303.44 449.20 302.35 428.00
  Q 302.13 423.76 302.25 412.25
  C 302.47 391.81 310.01 371.57 321.27 354.76
  Q 321.49 354.44 329.95 341.97
  Z"
/>
<path fill="#000000" d="
  M 675.63 344.14
  C 678.78 339.51 684.49 337.92 688.22 342.84
  Q 695.15 351.98 698.07 356.37
  Q 711.87 377.04 714.41 401.03
  Q 715.35 409.89 715.04 422.51
  Q 714.57 441.89 708.78 456.30
  Q 702.44 472.03 692.87 486.38
  Q 689.90 490.84 685.89 489.88
  Q 681.37 488.81 679.69 484.82
  Q 678.31 481.54 681.39 476.88
  Q 685.41 470.81 690.63 460.38
  C 706.40 428.81 704.50 390.50 683.71 361.77
  Q 681.32 358.47 676.89 353.04
  C 674.51 350.13 673.47 347.32 675.63 344.14
  Z"
/>
<path fill="#000000" d="
  M 368.63 452.87
  C 373.44 462.26 360.60 467.27 356.10 459.11
  Q 353.24 453.90 350.05 445.94
  Q 343.61 429.87 345.11 411.98
  C 346.06 400.63 351.61 387.89 357.06 378.18
  Q 360.22 372.57 362.59 371.45
  C 366.97 369.38 372.90 373.22 372.96 378.35
  Q 372.99 380.50 371.02 383.62
  C 367.26 389.62 363.59 396.53 361.00 403.77
  C 357.21 414.35 357.00 425.33 361.03 435.72
  Q 364.69 445.19 368.63 452.87
  Z"
/>
<path fill="#000000" d="
  M 673.96 416.71
  C 674.53 432.40 669.19 447.57 660.77 460.52
  C 658.04 464.72 652.13 464.04 649.41 460.60
  Q 646.65 457.12 649.18 452.39
  C 653.93 443.49 658.71 434.03 659.79 424.24
  Q 660.08 421.65 659.91 417.23
  Q 659.75 412.81 659.28 410.25
  C 657.48 400.56 652.02 391.48 646.63 382.95
  Q 643.76 378.42 646.25 374.75
  C 648.71 371.12 654.56 370.01 657.58 374.00
  C 666.94 386.29 673.38 401.02 673.96 416.71
  Z"
/>
</svg>
